PathFileType	4	(X/Y/Z)	c:/Users/goper/Files/vsCode/490R/osim_files/C15/C15_SSWS_05.trc
DataRate	CameraRate	NumFrames	NumMarkers	Units                	OrigDataRate	OrigDataStartFrame	OrigNumFrames
250.00	250.00	7	36	mm	250.0	1315	2629
                Frame#	Time	LPSIS			LASIS			LTH1			LTH2			LTH3			LTH4			LLFE			LMFE			LSH1			LSH2			LSH3			LSH4			LLMAL			LMMAL			LCAL			LMTP5			LTOE			LMTP1			RPSIS			RASIS			RTH1			RTH2			RTH3			RTH4			RLFE			RMFE			RSH1			RSH2			RSH3			RSH4			RLMAL			RMMAL			RCAL			RMTP1			RTOE			RMTP5		
		X1	Y1	Z1	X2	Y2	Z2	X3	Y3	Z3	X4	Y4	Z4	X5	Y5	Z5	X6	Y6	Z6	X7	Y7	Z7	X8	Y8	Z8	X9	Y9	Z9	X10	Y10	Z10	X11	Y11	Z11	X12	Y12	Z12	X13	Y13	Z13	X14	Y14	Z14	X15	Y15	Z15	X16	Y16	Z16	X17	Y17	Z17	X18	Y18	Z18	X19	Y19	Z19	X20	Y20	Z20	X21	Y21	Z21	X22	Y22	Z22	X23	Y23	Z23	X24	Y24	Z24	X25	Y25	Z25	X26	Y26	Z26	X27	Y27	Z27	X28	Y28	Z28	X29	Y29	Z29	X30	Y30	Z30	X31	Y31	Z31	X32	Y32	Z32	X33	Y33	Z33	X34	Y34	Z34	X35	Y35	Z35	X36	Y36	Z36

1315	5.25600	643.36621	1004.71826	299.68271	470.68942	984.97314	351.66595	455.04248	604.73804	415.28445	443.41501	559.30292	398.35956	407.61884	624.86676	408.32660	397.04001	582.12683	397.63150	410.87772	492.32404	375.51779	418.94656	479.21170	256.33109	458.09668	379.94913	393.23721	453.00192	334.59442	397.31931	396.20975	379.89413	385.13766	399.67505	335.19489	389.83154	426.14392	77.87846	328.86697	408.48511	105.87725	239.27588	485.13577	54.22933	282.12741	302.66055	39.70983	346.50009	247.78593	66.26028	284.32703	285.20538	34.42498	227.81470	650.92798	997.86853	179.09244	500.97748	966.63409	105.59553	589.08221	597.45905	60.58747	589.24817	550.83466	67.18431	527.66321	591.56830	68.23858	536.65497	544.95728	70.53846	594.32452	458.82098	86.47794	593.88922	436.82550	206.76158	722.56787	428.65805	84.36480	752.03326	397.02304	81.59742	681.33173	382.14340	72.59124	717.22937	357.97028	71.22235	908.67517	173.94235	136.03535	864.48810	172.16293	217.94943	970.64917	197.06764	184.06311	841.67444	50.72345	233.05540	812.56598	51.75120	179.89128	876.15399	42.63816	118.23214
1316	5.26000	638.91870	1005.20563	300.42252	466.48770	985.31152	351.92310	452.24890	604.52557	415.63049	440.89221	559.13599	398.60156	404.82202	624.84680	409.04758	394.60712	581.76105	398.44016	408.56287	492.12573	375.79190	416.58621	479.93826	255.97902	456.32880	379.95575	392.94769	451.62347	334.59268	397.03369	393.95016	378.94656	385.12024	398.33517	334.93790	390.10583	425.94986	77.86003	328.77689	407.99927	105.68897	238.86041	485.04865	54.23412	282.10968	302.62701	39.62727	346.53195	247.60606	65.84306	284.23419	285.07321	34.17273	227.71761	646.82825	998.08624	179.83871	497.11374	966.98846	106.08336	582.35266	596.94537	60.35502	582.11957	550.42102	66.93184	521.27655	592.02142	67.54197	529.21613	544.73138	70.28700	586.33264	458.66660	85.97403	584.88165	436.05518	206.23396	714.19464	429.82034	84.16427	744.15796	398.60767	81.36642	673.55920	382.89401	71.83704	709.74176	359.19711	70.54435	903.21448	177.62817	135.28970	858.96539	175.50401	216.42584	964.30634	202.75235	183.09842	839.44440	53.03189	232.70892	810.17480	52.21122	179.51193	874.38330	45.02135	118.17553
1317	5.26400	634.45837	1005.71252	301.14847	462.35580	985.95197	352.16797	449.53308	604.58337	415.81430	438.32034	559.01709	398.83032	402.09183	624.61005	409.83023	391.98706	581.40295	399.00543	406.56628	492.20264	376.02313	413.85144	479.33313	256.53156	454.81113	380.06299	392.58548	450.37234	334.63818	396.67740	392.79474	379.10574	385.39844	397.19504	334.64233	390.20602	425.75275	77.86613	328.65598	407.77423	105.55681	238.69217	484.97992	54.30196	282.07898	302.56921	39.58314	346.50552	247.50470	65.45404	284.08716	285.01431	33.88578	227.59467	642.84180	998.33832	180.60910	493.55267	967.32190	106.22227	575.67566	596.62592	60.22598	575.09113	550.12482	66.67954	514.38879	591.99170	67.13630	522.40009	545.13531	69.41720	578.21112	458.54617	85.46413	576.16309	435.44022	205.78108	705.73425	430.93845	83.76694	735.72107	399.69745	81.14912	665.79858	383.71265	70.93497	702.46826	360.80551	69.46041	897.44244	181.47826	134.48683	853.19971	178.44337	215.77074	957.84460	208.97435	182.74504	836.83130	55.28699	232.23315	807.72937	52.81058	179.00722	872.45471	47.78064	118.06426
1318	5.26800	630.13593	1006.22620	301.82214	457.86917	986.23798	352.48279	446.80716	604.46063	416.12198	435.74112	558.99835	399.07092	399.43839	624.32928	410.07358	389.19043	580.95178	399.34973	404.33038	492.03040	376.23529	411.37027	479.50113	256.63354	452.89310	379.77991	392.17743	449.27972	334.72778	396.24329	391.42139	378.95972	385.77365	395.94122	334.37802	390.31552	425.59573	77.87353	328.52072	407.57758	105.46645	238.54533	484.96268	54.38167	282.04605	302.53250	39.57932	346.49316	247.41234	65.16553	283.98645	284.94519	33.58986	227.47696	638.84076	998.59290	181.34543	489.76227	967.38989	106.45297	568.97021	596.40204	60.09721	570.64624	551.35712	65.40246	507.63660	592.21136	66.73673	515.29260	545.31567	68.87766	567.84937	457.50861	85.68150	567.26556	435.06973	205.36227	697.25592	432.12506	83.24750	727.41858	401.05670	80.68053	657.83972	384.47263	70.08282	694.27313	361.31888	69.20910	891.49750	185.35863	133.71831	847.24652	181.35188	215.14751	950.90417	214.76082	181.92891	833.97955	57.75575	231.64763	805.12201	53.54714	178.46899	870.23993	50.68585	117.97893
1319	5.27200	625.82355	1006.75378	302.50452	453.44022	986.58270	352.73801	444.18689	604.31482	416.53220	433.41672	559.02216	399.31079	396.66290	624.04462	410.52344	386.65427	580.72449	399.80484	402.15854	491.88422	376.48254	408.78009	479.76556	256.78531	451.96719	380.26056	391.79886	448.27866	334.81827	395.83456	389.83408	378.58557	385.83731	394.93106	334.15372	390.45346	425.47989	77.92277	328.41650	407.42972	105.41600	238.44331	484.92093	54.42036	281.98767	302.49106	39.56737	346.46530	247.33636	64.92026	283.91229	284.87796	33.39634	227.39871	634.87061	998.81580	182.03850	486.11929	967.57257	106.73733	562.25751	596.21222	59.97097	563.56744	551.20392	65.13924	501.00879	592.52740	66.18652	508.04025	545.52350	68.20896	559.84998	457.63846	85.14630	558.63098	434.90677	204.92973	688.20941	432.83835	82.67989	719.27722	402.79880	79.94737	649.63885	385.13846	69.33969	687.01135	363.63739	67.97198	885.38562	189.29008	133.04735	841.24817	184.40407	214.68454	943.69092	220.61098	181.19019	831.14117	60.32385	231.10640	802.41327	55.05578	177.42007	867.65796	53.27325	118.36843
1320	5.27600	621.56488	1007.28497	303.14090	449.33218	987.11340	352.44580	441.49063	604.26703	416.84073	430.94110	559.01355	399.46503	393.96176	623.92719	410.97702	384.23938	580.67627	400.29971	399.76288	491.53482	376.73413	405.85239	480.03476	256.83926	450.70734	380.45367	391.35895	447.39331	335.01242	395.42831	388.17853	377.85727	386.03757	393.92691	333.97430	390.63638	425.39310	77.98786	328.31165	407.30209	105.38947	238.36575	484.88699	54.51202	281.92810	302.44107	39.54998	346.48901	247.24396	64.72060	283.90152	284.81461	33.28263	227.37883	630.92126	999.12488	182.71417	482.58670	967.87024	107.02538	555.52417	596.14240	59.86044	556.51208	551.13263	64.89654	494.30774	592.90607	65.73856	500.75385	545.63342	68.09445	551.69177	457.75049	84.69372	550.01587	434.96497	204.63148	679.29755	433.81076	81.97074	710.58533	403.97180	79.22957	641.23279	385.73349	68.69688	678.83807	364.55383	67.32182	879.37323	193.45660	132.58713	834.92200	187.43291	214.17322	936.10632	226.45747	180.55576	828.11035	62.98932	230.64876	799.44159	55.24325	177.34215	865.17908	56.58785	118.30190
1321	5.28000	617.40515	1007.87061	303.72833	445.07455	987.59033	352.65585	438.90097	604.28448	417.12479	428.47650	559.04486	399.66653	391.46136	623.84253	411.65741	381.61581	580.47839	400.52106	397.92850	491.68719	377.02072	405.12671	480.57129	257.25204	449.57056	380.65738	390.94479	446.53278	335.19464	395.12070	386.93478	377.71262	386.35535	392.94592	333.79385	390.74033	425.27631	78.02647	328.20114	407.15268	105.40010	238.32663	484.88309	54.59454	281.87439	302.39816	39.52755	346.52435	247.17085	64.53084	283.88599	284.78290	33.23852	227.35886	626.97070	999.43475	183.38805	478.95117	968.17120	107.28218	548.76282	596.18475	59.69981	545.62408	549.69177	66.95037	487.57034	593.49249	65.22429	493.93958	546.38556	67.34027	543.37915	457.88110	84.25925	541.66870	435.27060	204.51207	670.45105	434.96945	81.22968	701.76093	404.94559	78.59788	632.65881	386.28116	68.14567	670.23041	365.11523	67.06944	872.97070	197.33008	131.94669	828.61853	190.56979	213.69495	928.23291	232.30185	180.04298	824.68420	65.66628	229.93498	796.36914	56.96600	175.90268	862.47528	60.08855	118.17119
